<svg width="50" height="50" viewBox="0 0 50 50" fill="none" xmlns="http://www.w3.org/2000/svg">
<mask id="path-1-inside-1_274_28" fill="white">
<path fill-rule="evenodd" clip-rule="evenodd" d="M50 0H0V50H50V0ZM23.3942 19.5851C23.3153 19.5298 23.2213 19.5 23.125 19.5C23.0287 19.5 22.9347 19.5298 22.8558 19.5851C22.777 19.6405 22.7171 19.7188 22.6844 19.8094L20.9219 24.6565H17.9688C17.8444 24.6565 17.7252 24.7059 17.6373 24.7938C17.5494 24.8817 17.5 25.0009 17.5 25.1253C17.5 25.2496 17.5494 25.3688 17.6373 25.4567C17.7252 25.5447 17.8444 25.594 17.9688 25.594H21.25C21.3462 25.5941 21.4401 25.5645 21.519 25.5093C21.5978 25.4541 21.6577 25.376 21.6906 25.2856L23.125 21.3413L26.4344 30.4412C26.4672 30.5317 26.5271 30.6098 26.606 30.6651C26.6848 30.7204 26.7787 30.75 26.875 30.75C26.9713 30.75 27.0652 30.7204 27.144 30.6651C27.2229 30.6098 27.2828 30.5317 27.3156 30.4412L29.0781 25.594H32.0312C32.1556 25.594 32.2748 25.5447 32.3627 25.4567C32.4506 25.3688 32.5 25.2496 32.5 25.1253C32.5 25.0009 32.4506 24.8817 32.3627 24.7938C32.2748 24.7059 32.1556 24.6565 32.0312 24.6565H28.75C28.6539 24.6564 28.5601 24.6859 28.4813 24.7409C28.4024 24.7959 28.3424 24.8738 28.3094 24.964L26.875 28.9092L23.5656 19.8094C23.5329 19.7188 23.473 19.6405 23.3942 19.5851Z"/>
</mask>
<path d="M0 0V-1H-1V0H0ZM50 0H51V-1H50V0ZM0 50H-1V51H0V50ZM50 50V51H51V50H50ZM23.125 19.5L23.1254 18.5L23.1246 18.5L23.125 19.5ZM23.3942 19.5851L23.9688 18.7667L23.9688 18.7667L23.3942 19.5851ZM22.8558 19.5851L22.2812 18.7667L22.2812 18.7667L22.8558 19.5851ZM22.6844 19.8094L23.6242 20.1511L23.6248 20.1494L22.6844 19.8094ZM20.9219 24.6565V25.6565H21.6223L21.8617 24.9982L20.9219 24.6565ZM17.6373 24.7938L16.9302 24.0867L16.9302 24.0867L17.6373 24.7938ZM17.6373 25.4567L16.9302 26.1638L16.9302 26.1638L17.6373 25.4567ZM21.25 25.594L21.2503 24.594H21.25V25.594ZM21.519 25.5093L20.9455 24.6901L20.9455 24.6901L21.519 25.5093ZM21.6906 25.2856L22.6303 25.6276L22.6304 25.6274L21.6906 25.2856ZM23.125 21.3413L24.0648 20.9996L23.125 18.4154L22.1852 20.9996L23.125 21.3413ZM26.4344 30.4412L27.3744 30.1L27.3742 30.0994L26.4344 30.4412ZM26.606 30.6651L27.1799 29.8462L27.1799 29.8462L26.606 30.6651ZM27.144 30.6651L26.5701 29.8462L26.5701 29.8462L27.144 30.6651ZM27.3156 30.4412L26.3758 30.0994L26.3756 30.1L27.3156 30.4412ZM29.0781 25.594V24.594H28.3777L28.1383 25.2523L29.0781 25.594ZM32.3627 25.4567L31.6556 24.7497L31.6556 24.7497L32.3627 25.4567ZM32.3627 24.7938L31.6556 25.5009L31.6556 25.5009L32.3627 24.7938ZM28.75 24.6565L28.749 25.6565H28.75V24.6565ZM28.3094 24.964L27.3704 24.62L27.3696 24.6223L28.3094 24.964ZM26.875 28.9092L25.9352 29.251L26.8751 31.8355L27.8148 29.2509L26.875 28.9092ZM23.5656 19.8094L22.6252 20.1494L22.6258 20.1512L23.5656 19.8094ZM0 1H50V-1H0V1ZM1 50V0H-1V50H1ZM50 49H0V51H50V49ZM49 0V50H51V0H49ZM23.1246 20.5C23.0154 20.5 22.9089 20.4663 22.8195 20.4035L23.9688 18.7667C23.7218 18.5933 23.4273 18.5001 23.1254 18.5L23.1246 20.5ZM23.4305 20.4035C23.3411 20.4663 23.2346 20.5 23.1254 20.5L23.1246 18.5C22.8227 18.5001 22.5282 18.5933 22.2812 18.7667L23.4305 20.4035ZM23.6248 20.1494C23.5877 20.252 23.5198 20.3408 23.4305 20.4035L22.2812 18.7667C22.0342 18.9402 21.8466 19.1855 21.7439 19.4694L23.6248 20.1494ZM21.8617 24.9982L23.6242 20.1511L21.7446 19.4677L19.9821 24.3148L21.8617 24.9982ZM17.9688 25.6565H20.9219V23.6565H17.9688V25.6565ZM18.3444 25.5009C18.2448 25.6005 18.1097 25.6565 17.9688 25.6565V23.6565C17.5792 23.6565 17.2056 23.8113 16.9302 24.0867L18.3444 25.5009ZM18.5 25.1253C18.5 25.2662 18.444 25.4013 18.3444 25.5009L16.9302 24.0867C16.6547 24.3622 16.5 24.7357 16.5 25.1253H18.5ZM18.3444 24.7497C18.444 24.8493 18.5 24.9844 18.5 25.1253H16.5C16.5 25.5148 16.6547 25.8884 16.9302 26.1638L18.3444 24.7497ZM17.9688 24.594C18.1097 24.594 18.2448 24.65 18.3444 24.7497L16.9302 26.1638C17.2056 26.4393 17.5792 26.594 17.9688 26.594V24.594ZM21.25 24.594H17.9688V26.594H21.25V24.594ZM20.9455 24.6901C21.0348 24.6276 21.1412 24.594 21.2503 24.594L21.2497 26.594C21.5512 26.5941 21.8454 26.5014 22.0924 26.3285L20.9455 24.6901ZM20.7509 24.9436C20.7882 24.8412 20.8561 24.7526 20.9455 24.6901L22.0924 26.3285C22.3394 26.1556 22.5272 25.9109 22.6303 25.6276L20.7509 24.9436ZM22.1852 20.9996L20.7508 24.9438L22.6304 25.6274L24.0648 21.6831L22.1852 20.9996ZM27.3742 30.0994L24.0648 20.9996L22.1852 21.6831L25.4946 30.7829L27.3742 30.0994ZM27.1799 29.8462C27.2693 29.9088 27.3372 29.9974 27.3744 30.1L25.4944 30.7823C25.5973 31.0659 25.785 31.3109 26.032 31.484L27.1799 29.8462ZM26.875 29.75C26.9841 29.75 27.0906 29.7836 27.1799 29.8462L26.032 31.484C26.279 31.6571 26.5733 31.75 26.875 31.75V29.75ZM26.5701 29.8462C26.6594 29.7836 26.7659 29.75 26.875 29.75V31.75C27.1767 31.75 27.471 31.6571 27.718 31.484L26.5701 29.8462ZM26.3756 30.1C26.4128 29.9974 26.4807 29.9088 26.5701 29.8462L27.718 31.484C27.965 31.3109 28.1527 31.0659 28.2556 30.7823L26.3756 30.1ZM28.1383 25.2523L26.3758 30.0994L28.2554 30.7829L30.0179 25.9358L28.1383 25.2523ZM32.0312 24.594H29.0781V26.594H32.0312V24.594ZM31.6556 24.7497C31.7552 24.65 31.8903 24.594 32.0312 24.594V26.594C32.4208 26.594 32.7944 26.4393 33.0698 26.1638L31.6556 24.7497ZM31.5 25.1253C31.5 24.9844 31.556 24.8493 31.6556 24.7497L33.0698 26.1638C33.3453 25.8884 33.5 25.5148 33.5 25.1253H31.5ZM31.6556 25.5009C31.556 25.4013 31.5 25.2662 31.5 25.1253H33.5C33.5 24.7357 33.3453 24.3622 33.0698 24.0867L31.6556 25.5009ZM32.0312 25.6565C31.8903 25.6565 31.7552 25.6005 31.6556 25.5009L33.0698 24.0867C32.7944 23.8113 32.4208 23.6565 32.0312 23.6565V25.6565ZM28.75 25.6565H32.0312V23.6565H28.75V25.6565ZM29.0536 25.5609C28.9643 25.6232 28.8579 25.6566 28.749 25.6565L28.751 23.6565C28.4499 23.6562 28.1559 23.7485 27.9089 23.9208L29.0536 25.5609ZM29.2483 25.308C29.2109 25.4103 29.1429 25.4986 29.0536 25.5609L27.9089 23.9208C27.662 24.0932 27.474 24.3373 27.3704 24.62L29.2483 25.308ZM27.8148 29.2509L29.2492 25.3057L27.3696 24.6223L25.9352 28.5675L27.8148 29.2509ZM22.6258 20.1512L25.9352 29.251L27.8148 28.5674L24.5054 19.4676L22.6258 20.1512ZM22.8195 20.4035C22.7302 20.3408 22.6623 20.252 22.6252 20.1494L24.5061 19.4694C24.4034 19.1855 24.2158 18.9402 23.9688 18.7667L22.8195 20.4035Z" fill="white" mask="url(#path-1-inside-1_274_28)"/>
</svg>
